<svg width="810" height="415" xmlns="http://www.w3.org/2000/svg"><defs><linearGradient x1="0%" y1="31.331%" x2="50%" y2="87.5%" id="a"><stop stop-color="#FFFEFA" offset="0%"/><stop stop-color="#FFEBAE" offset="100%"/></linearGradient></defs><g fill="none" fill-rule="evenodd"><g fill-rule="nonzero"><path fill="url(#a)" d="M114 3l109.985 63.5v127L114 257 4.015 193.5v-127z" transform="translate(78 77)"/><path d="M188.755 77.67L80.5 140.17a5 5 0 0 0-2.5 4.33v125a5 5 0 0 0 2.5 4.33l108.255 62.5a5 5 0 0 0 5 0l108.255-62.5a5 5 0 0 0 2.5-4.33v-125a5 5 0 0 0-2.5-4.33l-108.255-62.5a5 5 0 0 0-5 0zm2.5 9.33l103.925 60v120l-103.925 60L87.33 267V147l103.925-60z" fill="#94161F"/></g><path d="M393.749 229.737a13.7 13.7 0 0 1-1.893 2.99 16.547 16.547 0 0 1-2.563 2.503 11.803 11.803 0 0 1-3.082 1.74 9.591 9.591 0 0 1-3.449.64c-3.214 0-5.544-.885-6.988-2.655-1.445-1.77-2.167-4.18-2.167-7.232v-1.099a43.259 43.259 0 0 1-2.38 4.15 20.279 20.279 0 0 1-3.083 3.724 15.174 15.174 0 0 1-3.906 2.685c-1.444.692-3.062 1.038-4.852 1.038-2.727 0-5.117-.54-7.172-1.618a15.424 15.424 0 0 1-5.157-4.333c-1.384-1.81-2.432-3.917-3.144-6.317-.712-2.401-1.068-4.924-1.068-7.569 0-3.418.53-6.856 1.587-10.315 1.058-3.458 2.604-6.591 4.639-9.4a24.955 24.955 0 0 1 7.507-6.866c2.97-1.77 6.368-2.655 10.193-2.655 2.36 0 4.639.57 6.836 1.71v-37.476l11.291-3.906v78.552c0 .814.194 1.556.58 2.228.387.671 1.028 1.007 1.923 1.007.936 0 1.81-.377 2.624-1.13.814-.752 1.465-1.515 1.954-2.288l1.77 1.892zm-20.142-18.372v-13a12.958 12.958 0 0 0-3.143-2.32c-1.16-.61-2.432-.915-3.815-.915-2.4 0-4.435.65-6.104 1.953-1.668 1.302-3.031 2.93-4.089 4.883a23.706 23.706 0 0 0-2.32 6.317c-.488 2.258-.732 4.364-.732 6.317 0 1.546.153 3.286.458 5.219a21.521 21.521 0 0 0 1.587 5.432c.753 1.688 1.75 3.113 2.99 4.272 1.242 1.16 2.798 1.74 4.67 1.74 1.505 0 2.818-.336 3.937-1.007a9.435 9.435 0 0 0 2.838-2.625c.773-1.078 1.404-2.32 1.892-3.723a28.483 28.483 0 0 0 1.129-4.303 40.6 40.6 0 0 0 .55-4.364c.101-1.445.152-2.736.152-3.876zm68.481 13.733a44.6 44.6 0 0 1-4.669 5.127 31.925 31.925 0 0 1-5.493 4.15 29.282 29.282 0 0 1-6.256 2.808 22.63 22.63 0 0 1-6.836 1.038c-3.011 0-5.778-.54-8.3-1.618-2.524-1.078-4.7-2.563-6.532-4.455-1.83-1.892-3.255-4.13-4.272-6.714-1.017-2.584-1.526-5.361-1.526-8.331 0-2.442.346-4.843 1.038-7.203a27.808 27.808 0 0 1 2.93-6.652 32.072 32.072 0 0 1 4.485-5.768 29.051 29.051 0 0 1 12.3-7.508c2.318-.712 4.699-1.068 7.14-1.068 1.71 0 3.327.204 4.852.61 1.526.408 2.88 1.048 4.06 1.923 1.18.875 2.115 1.994 2.807 3.357.692 1.363 1.038 2.98 1.038 4.852 0 1.547-.458 3.174-1.374 4.883-.915 1.71-2.116 3.418-3.6 5.127a53.436 53.436 0 0 1-5.036 5.036 78.065 78.065 0 0 1-5.707 4.577 71.119 71.119 0 0 1-5.585 3.693c-1.79 1.058-3.357 1.872-4.7 2.441 1.506 1.872 3.256 3.398 5.25 4.578 1.993 1.18 4.11 1.77 6.347 1.77 1.424 0 2.869-.275 4.334-.824a23.525 23.525 0 0 0 4.242-2.106 37.96 37.96 0 0 0 3.906-2.807 79.937 79.937 0 0 0 3.326-2.869l1.831 1.953zm-14.71-23.193c0-.936-.152-1.831-.457-2.686a6.588 6.588 0 0 0-1.312-2.228 6.646 6.646 0 0 0-2.045-1.525c-.793-.387-1.699-.58-2.716-.58-1.83 0-3.52.64-5.066 1.922-1.546 1.282-2.879 2.859-3.998 4.73a26.355 26.355 0 0 0-2.624 5.952c-.63 2.095-.946 3.936-.946 5.523 0 1.546.244 3.133.732 4.76a22.726 22.726 0 0 0 2.014 4.7c1.628-.895 3.398-2.136 5.31-3.723a46.178 46.178 0 0 0 5.341-5.218c1.648-1.892 3.021-3.855 4.12-5.89 1.099-2.034 1.648-3.947 1.648-5.737zm64.332 23.193a44.6 44.6 0 0 1-4.67 5.127 31.925 31.925 0 0 1-5.492 4.15 29.282 29.282 0 0 1-6.256 2.808 22.63 22.63 0 0 1-6.836 1.038c-3.012 0-5.778-.54-8.301-1.618-2.523-1.078-4.7-2.563-6.531-4.455-1.831-1.892-3.255-4.13-4.272-6.714-1.018-2.584-1.526-5.361-1.526-8.331 0-2.442.346-4.843 1.037-7.203a27.808 27.808 0 0 1 2.93-6.652 32.072 32.072 0 0 1 4.486-5.768 29.051 29.051 0 0 1 12.299-7.508c2.319-.712 4.7-1.068 7.14-1.068 1.71 0 3.327.204 4.853.61 1.526.408 2.879 1.048 4.059 1.923 1.18.875 2.116 1.994 2.808 3.357.691 1.363 1.037 2.98 1.037 4.852 0 1.547-.458 3.174-1.373 4.883-.916 1.71-2.116 3.418-3.601 5.127a53.436 53.436 0 0 1-5.036 5.036 78.065 78.065 0 0 1-5.706 4.577 71.119 71.119 0 0 1-5.585 3.693c-1.79 1.058-3.357 1.872-4.7 2.441 1.506 1.872 3.255 3.398 5.25 4.578 1.993 1.18 4.109 1.77 6.347 1.77 1.424 0 2.868-.275 4.333-.824a23.525 23.525 0 0 0 4.242-2.106 37.96 37.96 0 0 0 3.906-2.807 79.937 79.937 0 0 0 3.327-2.869l1.831 1.953zM477 201.905c0-.936-.152-1.831-.457-2.686a6.588 6.588 0 0 0-1.313-2.228 6.646 6.646 0 0 0-2.044-1.525c-.794-.387-1.699-.58-2.716-.58-1.831 0-3.52.64-5.066 1.922-1.546 1.282-2.879 2.859-3.998 4.73a26.355 26.355 0 0 0-2.625 5.952c-.63 2.095-.946 3.936-.946 5.523 0 1.546.245 3.133.733 4.76a22.726 22.726 0 0 0 2.014 4.7c1.628-.895 3.398-2.136 5.31-3.723a46.178 46.178 0 0 0 5.34-5.218c1.649-1.892 3.022-3.855 4.12-5.89 1.1-2.034 1.648-3.947 1.648-5.737zm46.692 36.194c-1.424 0-2.787-.194-4.089-.58-1.302-.387-2.523-1.028-3.662-1.923l4.76-6.836c.774 1.058 1.68 1.882 2.717 2.472 1.037.59 2.187.885 3.448.885 1.302 0 2.421-.336 3.357-1.007.936-.671 1.72-1.556 2.35-2.655.63-1.099 1.15-2.33 1.556-3.693.407-1.363.712-2.736.916-4.12.203-1.383.346-2.715.427-3.997.082-1.282.122-2.37.122-3.266 0-1.709-.234-3.56-.702-5.554a22.25 22.25 0 0 0-2.136-5.615c-.956-1.75-2.187-3.204-3.693-4.364-1.505-1.16-3.295-1.74-5.37-1.74-1.425 0-2.635.356-3.632 1.069-.997.712-1.831 1.648-2.503 2.807-.671 1.16-1.2 2.482-1.587 3.967a34.372 34.372 0 0 0-.854 4.456 46.418 46.418 0 0 0-.336 4.334c-.04 1.403-.06 2.614-.06 3.631v46.875l-11.11 3.906V198.61c0-.814-.203-1.557-.61-2.228-.406-.671-1.037-1.007-1.892-1.007-1.017 0-1.943.376-2.777 1.13-.834.752-1.495 1.495-1.983 2.227L494.7 196.9a15.94 15.94 0 0 1 1.861-2.96c.753-.957 1.608-1.8 2.564-2.533a12.322 12.322 0 0 1 3.113-1.74 9.755 9.755 0 0 1 3.509-.64c1.75 0 3.194.254 4.334.762 1.139.509 2.054 1.231 2.746 2.167.692.936 1.18 2.055 1.465 3.357.285 1.302.427 2.747.427 4.333a36.375 36.375 0 0 1 2.289-3.814 19.227 19.227 0 0 1 2.96-3.418 14.967 14.967 0 0 1 3.632-2.442c1.322-.63 2.777-.946 4.364-.946 2.807 0 5.3.62 7.477 1.862a17.551 17.551 0 0 1 5.493 4.883c1.485 2.014 2.614 4.282 3.387 6.805a26.108 26.108 0 0 1 1.16 7.69c0 3.215-.458 6.47-1.373 9.766-.916 3.296-2.279 6.287-4.09 8.972a22.268 22.268 0 0 1-6.805 6.562c-2.726 1.688-5.9 2.533-9.522 2.533zm78.37-52.124l-3.724 9.887H556.59l3.846-9.887h41.626zm50.964 39.123a44.6 44.6 0 0 1-4.67 5.127 31.925 31.925 0 0 1-5.492 4.15 29.282 29.282 0 0 1-6.257 2.808 22.63 22.63 0 0 1-6.836 1.038c-3.01 0-5.777-.54-8.3-1.618-2.523-1.078-4.7-2.563-6.531-4.455-1.831-1.892-3.255-4.13-4.273-6.714-1.017-2.584-1.525-5.361-1.525-8.331 0-2.442.345-4.843 1.037-7.203a27.808 27.808 0 0 1 2.93-6.652 32.072 32.072 0 0 1 4.486-5.768 29.051 29.051 0 0 1 12.299-7.508c2.319-.712 4.7-1.068 7.14-1.068 1.71 0 3.327.204 4.853.61 1.526.408 2.879 1.048 4.059 1.923 1.18.875 2.116 1.994 2.807 3.357.692 1.363 1.038 2.98 1.038 4.852 0 1.547-.458 3.174-1.373 4.883-.916 1.71-2.116 3.418-3.601 5.127a53.436 53.436 0 0 1-5.036 5.036 78.065 78.065 0 0 1-5.707 4.577 71.119 71.119 0 0 1-5.584 3.693c-1.79 1.058-3.357 1.872-4.7 2.441 1.506 1.872 3.255 3.398 5.25 4.578 1.993 1.18 4.109 1.77 6.347 1.77 1.424 0 2.868-.275 4.333-.824a23.525 23.525 0 0 0 4.242-2.106 37.96 37.96 0 0 0 3.906-2.807 79.937 79.937 0 0 0 3.327-2.869l1.83 1.953zm-14.71-23.193c0-.936-.152-1.831-.457-2.686a6.588 6.588 0 0 0-1.313-2.228 6.646 6.646 0 0 0-2.044-1.525c-.794-.387-1.7-.58-2.716-.58-1.831 0-3.52.64-5.066 1.922-1.547 1.282-2.88 2.859-3.998 4.73a26.355 26.355 0 0 0-2.625 5.952c-.63 2.095-.946 3.936-.946 5.523 0 1.546.245 3.133.733 4.76a22.726 22.726 0 0 0 2.014 4.7c1.628-.895 3.398-2.136 5.31-3.723a46.178 46.178 0 0 0 5.34-5.218c1.649-1.892 3.022-3.855 4.12-5.89 1.1-2.034 1.648-3.947 1.648-5.737zm71.106 54.87a15.94 15.94 0 0 1-1.861 2.96 15.894 15.894 0 0 1-2.533 2.564 12.002 12.002 0 0 1-3.082 1.8 9.363 9.363 0 0 1-3.51.672c-3.214 0-5.524-.895-6.927-2.686-1.404-1.79-2.106-4.19-2.106-7.202v-28.259a49.465 49.465 0 0 1-2.472 4.15 21.285 21.285 0 0 1-3.113 3.724 15.369 15.369 0 0 1-3.876 2.685c-1.424.692-3.01 1.038-4.76 1.038-2.645 0-4.985-.509-7.02-1.526-2.034-1.017-3.743-2.39-5.126-4.12-1.384-1.73-2.421-3.754-3.113-6.073-.692-2.32-1.038-4.781-1.038-7.385 0-2.36.285-4.75.855-7.172a35.623 35.623 0 0 1 2.41-6.958 32.52 32.52 0 0 1 3.846-6.256 27.442 27.442 0 0 1 5.127-5.066 24.133 24.133 0 0 1 6.256-3.387c2.279-.835 4.7-1.252 7.263-1.252 1.546 0 3.093.183 4.639.55 1.546.366 3.021.905 4.425 1.617a16.265 16.265 0 0 1 3.845 2.716 13.67 13.67 0 0 1 2.838 3.845l-9.094 3.846a26.713 26.713 0 0 0-1.679-2.35 14.749 14.749 0 0 0-2.075-2.136 10.218 10.218 0 0 0-2.441-1.526 6.652 6.652 0 0 0-2.716-.58 8.209 8.209 0 0 0-3.876.946c-1.2.63-2.299 1.475-3.296 2.533a18.76 18.76 0 0 0-2.655 3.631 28.139 28.139 0 0 0-1.953 4.212 26.923 26.923 0 0 0-1.19 4.272c-.265 1.404-.397 2.696-.397 3.876 0 1.546.153 3.286.458 5.219a21.215 21.215 0 0 0 1.617 5.462c.773 1.71 1.79 3.154 3.052 4.334 1.261 1.18 2.848 1.77 4.76 1.77 2.239 0 4.05-.712 5.433-2.137 1.383-1.424 2.451-3.163 3.204-5.218a27.248 27.248 0 0 0 1.496-6.47c.244-2.258.366-4.242.366-5.95v-4.334l11.108-3.906v51.88c0 .773.204 1.485.61 2.136.407.65 1.038.976 1.893.976 1.017 0 1.943-.356 2.777-1.068.834-.712 1.495-1.434 1.983-2.167l1.648 1.77zm25.269-26.916a14.365 14.365 0 0 1-1.862 2.99 15.507 15.507 0 0 1-2.533 2.503 11.803 11.803 0 0 1-3.082 1.74 9.591 9.591 0 0 1-3.448.64c-3.174 0-5.483-.885-6.928-2.655-1.444-1.77-2.167-4.18-2.167-7.232v-74.463l11.23-3.906v78.674c0 .814.184 1.556.55 2.228.366.671 1.017 1.007 1.953 1.007.936 0 1.821-.377 2.655-1.13.834-.752 1.496-1.495 1.984-2.227l1.648 1.83z" fill="#94161F"/></g></svg>